<?xml version="1.0" standalone="no"?>
<!DOCTYPE svg PUBLIC "-//W3C//DTD SVG 1.1//EN" "http://www.w3.org/Graphics/SVG/1.1/DTD/svg11.dtd">
<svg width="100%" height="100%" viewBox="0 0 1116 1066" version="1.1" xmlns="http://www.w3.org/2000/svg" xmlns:xlink="http://www.w3.org/1999/xlink" xml:space="preserve" style="fill-rule:evenodd;clip-rule:evenodd;stroke-linecap:round;stroke-linejoin:round;stroke-miterlimit:1.41421;">
    <g>
        <path d="M565.5,22.125C857.375,22.125 1093.99,251.875 1093.99,535.278C1093.99,818.681 857.375,1048.42 565.5,1048.42C273.611,1048.42 37,818.681 37,535.278C37,251.875 273.611,22.125 565.5,22.125Z" style="fill:white;stroke-width:20.83px;stroke:rgb(0,140,210);"/>
        <path d="M781.917,932.917L349.083,932.917L457.292,839.472L673.708,839.472L781.917,932.917Z" style="fill:rgb(63,60,61);"/>
        <path d="M781.917,932.917L349.083,932.917L457.292,839.472L673.708,839.472L781.917,932.917Z" style="fill:none;stroke-width:29.17px;stroke:rgb(54,54,57);"/>
        <path d="M672.278,130.819C698.958,130.819 720.583,152.472 720.583,179.181C720.583,205.903 698.958,227.556 672.278,227.556C645.597,227.556 623.972,205.903 623.972,179.181C623.972,152.472 645.597,130.819 672.278,130.819Z" style="fill:rgb(0,140,210);"/>
        <path d="M672.278,130.819C698.958,130.819 720.583,152.472 720.583,179.181C720.583,205.903 698.958,227.556 672.278,227.556C645.597,227.556 623.972,205.903 623.972,179.181C623.972,152.472 645.597,130.819 672.278,130.819Z" style="fill:none;stroke-width:29.17px;stroke:rgb(0,140,210);"/>
        <path d="M385.319,174.819C381.125,174.819 377.861,169.25 367.986,172.917C350.444,179.458 349.639,198.389 354,233.569C355.708,247.25 357.403,252.653 348.903,261.833C347.861,262.958 361.958,256.583 366.417,251.569C371.667,245.653 372.056,238.597 372.722,231.542C373.722,220.875 364.167,181.542 384.042,173.5" style="fill:rgb(0,140,210);"/>
        <path d="M385.319,174.819C381.125,174.819 377.861,169.25 367.986,172.917C350.444,179.458 349.639,198.389 354,233.569C355.708,247.25 357.403,252.653 348.903,261.833C347.861,262.958 361.958,256.583 366.417,251.569C371.667,245.653 372.056,238.597 372.722,231.542C373.722,220.875 364.167,181.542 384.042,173.5" style="fill:none;stroke-width:6.25px;stroke-linecap:butt;stroke:rgb(0,140,210);"/>
        <path d="M723.181,350.931C728.181,340.625 730.806,328.917 730.806,317.014C730.806,279.556 705.319,249.194 673.861,249.194C642.417,249.194 616.917,279.556 616.917,317.014C616.917,328.917 619.542,340.625 624.542,350.931L723.181,350.931Z" style="fill:rgb(0,140,210);"/>
        <path d="M723.181,350.931C728.181,340.625 730.806,328.917 730.806,317.014C730.806,279.556 705.319,249.194 673.861,249.194C642.417,249.194 616.917,279.556 616.917,317.014C616.917,328.917 619.542,340.625 624.542,350.931L723.181,350.931Z" style="fill:none;stroke-width:8.33px;stroke-linecap:butt;stroke:rgb(0,140,210);"/>
        <path d="M264.514,298.5C293.917,298.5 317.75,322.361 317.75,351.806C317.75,381.236 293.917,405.111 264.514,405.111C235.111,405.111 211.278,381.236 211.278,351.806C211.278,322.361 235.111,298.5 264.514,298.5Z" style="fill:rgb(0,140,210);"/>
        <path d="M264.514,298.5C293.917,298.5 317.75,322.361 317.75,351.806C317.75,381.236 293.917,405.111 264.514,405.111C235.111,405.111 211.278,381.236 211.278,351.806C211.278,322.361 235.111,298.5 264.514,298.5Z" style="fill:none;stroke-width:29.17px;stroke:rgb(0,140,210);"/>
        <path d="M284.806,579.042C290.542,563.569 293.597,546 293.653,528.125C293.806,471.847 264.889,426.139 229.056,426.042C193.208,425.931 164.028,471.472 163.875,527.75C163.819,545.625 166.764,563.208 172.417,578.708L284.806,579.042Z" style="fill:rgb(0,140,210);"/>
        <path d="M284.806,579.042C290.542,563.569 293.597,546 293.653,528.125C293.806,471.847 264.889,426.139 229.056,426.042C193.208,425.931 164.028,471.472 163.875,527.75C163.819,545.625 166.764,563.208 172.417,578.708L284.806,579.042Z" style="fill:none;stroke-width:16.67px;stroke-linecap:butt;stroke:rgb(0,140,210);"/>
        <path d="M841.194,300.431C867.514,292.5 895.611,308.486 903.958,336.125C912.292,363.764 897.708,392.597 871.389,400.514C845.056,408.444 816.958,392.458 808.625,364.819C800.278,337.181 814.861,308.347 841.194,300.431Z" style="fill:rgb(0,140,210);"/>
        <path d="M841.194,300.431C867.514,292.5 895.611,308.486 903.958,336.125C912.292,363.764 897.708,392.597 871.389,400.514C845.056,408.444 816.958,392.458 808.625,364.819C800.278,337.181 814.861,308.347 841.194,300.431Z" style="fill:none;stroke-width:16.67px;stroke-linecap:butt;stroke:rgb(0,140,210);"/>
        <path d="M863.861,285.083C866.056,275.736 865.958,275.347 869.069,268.903C873.292,260.153 880.083,256.222 884.319,254.222C901.083,246.319 912.972,252.403 920.986,258.042C932.806,266.361 937.319,279.861 938.25,284.292C940.903,296.694 940.708,304.75 938.986,314.819C936.819,327.417 937.986,320.125 935.75,334.847C933.75,347.944 934.764,353.611 935.806,358.069C938.417,369.389 949.958,376.639 960.264,368.681C962.139,367.236 944.833,384.958 935.167,389.847C918.903,398.069 910.583,385.25 912.347,383.194C919.5,374.917 922.847,360.972 923.069,359.472C924.472,350.333 924.278,349.917 924.208,340.889C924.125,330.597 919.083,319.833 910.097,307.681C909.653,307.083 905.347,302 902.986,299.764C899.208,296.208 897.472,293.972 884.736,288.778C879.264,286.556 863.861,285.083 863.861,285.083Z" style="fill:rgb(0,140,210);"/>
        <path d="M863.861,285.083C866.056,275.736 865.958,275.347 869.069,268.903C873.292,260.153 880.083,256.222 884.319,254.222C901.083,246.319 912.972,252.403 920.986,258.042C932.806,266.361 937.319,279.861 938.25,284.292C940.903,296.694 940.708,304.75 938.986,314.819C936.819,327.417 937.986,320.125 935.75,334.847C933.75,347.944 934.764,353.611 935.806,358.069C938.417,369.389 949.958,376.639 960.264,368.681C962.139,367.236 944.833,384.958 935.167,389.847C918.903,398.069 910.583,385.25 912.347,383.194C919.5,374.917 922.847,360.972 923.069,359.472C924.472,350.333 924.278,349.917 924.208,340.889C924.125,330.597 919.083,319.833 910.097,307.681C909.653,307.083 905.347,302 902.986,299.764C899.208,296.208 897.472,293.972 884.736,288.778C879.264,286.556 863.861,285.083 863.861,285.083Z" style="fill:none;stroke-width:8.33px;stroke-linecap:butt;stroke:rgb(0,140,210);"/>
        <path d="M956.972,574.153C962.056,557.444 964.708,538.5 964.667,519.208C964.556,458.542 938.389,409.417 906.236,409.486C874.083,409.542 848.125,458.778 848.236,519.444C848.278,538.722 851,557.667 856.153,574.347L956.972,574.153Z" style="fill:rgb(0,140,210);"/>
        <path d="M956.972,574.153C962.056,557.444 964.708,538.5 964.667,519.208C964.556,458.542 938.389,409.417 906.236,409.486C874.083,409.542 848.125,458.778 848.236,519.444C848.278,538.722 851,557.667 856.153,574.347L956.972,574.153Z" style="fill:none;stroke-width:16.67px;stroke-linecap:butt;stroke:rgb(0,140,210);"/>
        <path d="M437.694,131.792C465.403,131.792 487.861,155.458 487.861,184.653C487.861,213.847 465.403,237.5 437.694,237.5C409.986,237.5 387.528,213.847 387.528,184.653C387.528,155.458 409.986,131.792 437.694,131.792Z" style="fill:rgb(0,140,210);"/>
        <path d="M437.694,131.792C465.403,131.792 487.861,155.458 487.861,184.653C487.861,213.847 465.403,237.5 437.694,237.5C409.986,237.5 387.528,213.847 387.528,184.653C387.528,155.458 409.986,131.792 437.694,131.792Z" style="fill:none;stroke-width:16.67px;stroke-linecap:butt;stroke:rgb(0,140,210);"/>
        <path d="M358.958,376.792C402.389,322.736 370.625,319.542 387.208,286.569C398.639,263.819 414,251.583 440.278,252.292C466.583,253.014 480.694,264.528 493.653,287.75C500.389,299.806 503.403,324.528 524.361,329.347C577.764,341.639 540.069,340.139 511.653,341.597C482.167,343.111 358.958,376.792 358.958,376.792Z" style="fill:rgb(0,140,210);"/>
        <path d="M358.958,376.792C402.389,322.736 370.625,319.542 387.208,286.569C398.639,263.819 414,251.583 440.278,252.292C466.583,253.014 480.694,264.528 493.653,287.75C500.389,299.806 503.403,324.528 524.361,329.347C577.764,341.639 540.069,340.139 511.653,341.597C482.167,343.111 358.958,376.792 358.958,376.792Z" style="fill:none;stroke-width:8.33px;stroke-linecap:butt;stroke:rgb(0,140,210);"/>
        <path d="M489.958,176.222C494.042,176.222 497.208,170.653 506.819,174.319C523.889,180.847 524.667,199.792 520.417,234.972C518.764,248.653 517.125,254.056 525.389,263.236C526.403,264.361 512.694,258 508.361,252.972C503.25,247.056 502.861,240 502.222,232.944C501.236,222.278 510.542,182.958 491.208,174.917" style="fill:rgb(0,140,210);"/>
        <path d="M489.958,176.222C494.042,176.222 497.208,170.653 506.819,174.319C523.889,180.847 524.667,199.792 520.417,234.972C518.764,248.653 517.125,254.056 525.389,263.236C526.403,264.361 512.694,258 508.361,252.972C503.25,247.056 502.861,240 502.222,232.944C501.236,222.278 510.542,182.958 491.208,174.917" style="fill:none;stroke-width:6.25px;stroke-linecap:butt;stroke:rgb(0,140,210);"/>
        <path d="M346.903,585.389C346.903,543.708 349.819,416.889 348.819,432.319C347.833,447.528 348.042,399.361 373.667,378.639C379.736,373.722 386.653,365.931 394.639,361.153C412.861,350.278 419.083,346.444 428.903,346.069C451.125,345.222 592.389,341.236 619.444,340.972C658.278,340.611 682.014,341.708 699.014,343.528C705.625,344.236 734.458,356.417 739.583,359.833C749.389,366.375 780.111,396.125 784.042,414.25C794.875,464.167 789.778,585.278 790.181,583.583" style="fill:none;stroke-width:33.33px;stroke-linecap:butt;stroke:rgb(0,140,210);"/>
        <path d="M280.958,458.25C289,480.611 312.194,507.139 327.403,495.208C346.028,480.597 323.958,441.292 355.861,479.889C356.847,481.083 354.583,582.625 357.25,582.625C358.472,582.625 275.403,584.736 273.472,581.958C271.542,579.194 280.958,458.25 280.958,458.25Z" style="fill:rgb(0,140,210);"/>
        <path d="M280.958,458.25C289,480.611 312.194,507.139 327.403,495.208C346.028,480.597 323.958,441.292 355.861,479.889C356.847,481.083 354.583,582.625 357.25,582.625C358.472,582.625 275.403,584.736 273.472,581.958C271.542,579.194 280.958,458.25 280.958,458.25Z" style="fill:none;stroke-width:8.33px;stroke-linecap:butt;stroke:rgb(0,140,210);"/>
        <path d="M794.958,478.528C794.958,478.528 809.667,511.125 837.097,494.625C844.5,490.181 856.458,450.583 857.014,452.25C866.375,479.681 905.097,578.292 900.681,578.389C865.625,579.069 796.167,580.333 796.083,578.847C795.292,565.528 794.958,498.056 794.958,478.528Z" style="fill:rgb(0,140,210);"/>
        <path d="M794.958,478.528C794.958,478.528 809.667,511.125 837.097,494.625C844.5,490.181 856.458,450.583 857.014,452.25C866.375,479.681 905.097,578.292 900.681,578.389C865.625,579.069 796.167,580.333 796.083,578.847C795.292,565.528 794.958,498.056 794.958,478.528Z" style="fill:none;stroke-width:8.33px;stroke-linecap:butt;stroke:rgb(0,140,210);"/>
        <path d="M592.333,338.667C592.333,338.667 561.611,344 601.056,325.625C620.208,316.694 626.472,267.542 648.708,256.167C656.042,252.403 726.875,286.889 728.903,304.694C733,340.764 766.208,369.069 765.694,369.069C759.722,369.069 652.167,326.25 592.333,338.667Z" style="fill:rgb(0,140,210);"/>
        <path d="M592.333,338.667C592.333,338.667 561.611,344 601.056,325.625C620.208,316.694 626.472,267.542 648.708,256.167C656.042,252.403 726.875,286.889 728.903,304.694C733,340.764 766.208,369.069 765.694,369.069C759.722,369.069 652.167,326.25 592.333,338.667Z" style="fill:none;stroke-width:8.33px;stroke-linecap:butt;stroke:rgb(0,140,210);"/>
        <path d="M700.111,468.792C700.111,449.472 684.444,433.806 665.139,433.806L470.597,433.806C451.292,433.806 435.625,449.472 435.625,468.792L435.625,608.611C435.625,627.931 451.292,643.583 470.597,643.583L665.139,643.583C684.444,643.583 700.111,627.931 700.111,608.611L700.111,468.792Z" style="fill:rgb(54,54,57);"/>
        <path d="M700.111,468.792C700.111,449.472 684.444,433.806 665.139,433.806L470.597,433.806C451.292,433.806 435.625,449.472 435.625,468.792L435.625,608.611C435.625,627.931 451.292,643.583 470.597,643.583L665.139,643.583C684.444,643.583 700.111,627.931 700.111,608.611L700.111,468.792Z" style="fill:none;stroke-width:29.17px;stroke:rgb(54,54,57);"/>
        <path d="M744.278,462.708C744.278,421.528 710.889,388.153 669.722,388.153L465.792,388.153C424.625,388.153 391.236,421.528 391.236,462.708L391.236,611.806C391.236,652.986 424.625,686.361 465.792,686.361L669.722,686.361C710.889,686.361 744.278,652.986 744.278,611.806L744.278,462.708Z" style="fill:none;stroke-width:33.33px;stroke-linecap:butt;stroke:rgb(54,54,57);"/>
        <path d="M781.917,939.653L349.083,939.653L457.292,846.208L673.708,846.208L781.917,939.653Z" style="fill:rgb(63,60,61);"/>
        <path d="M781.917,939.653L349.083,939.653L457.292,846.208L673.708,846.208L781.917,939.653Z" style="fill:none;stroke-width:35.42px;stroke-dasharray:35.42,35.42;stroke:rgb(54,54,57);"/>
        <path d="M744.417,462.708C744.417,421.528 711.028,388.153 669.861,388.153L465.931,388.153C424.75,388.153 391.375,421.528 391.375,462.708L391.375,611.806C391.375,652.986 424.75,686.361 465.931,686.361L669.861,686.361C711.028,686.361 744.417,652.986 744.417,611.806L744.417,462.708Z" style="fill:none;stroke-width:33.33px;stroke-linecap:butt;stroke:rgb(54,54,57);"/>
        <path d="M150.222,756.028C150.222,751.597 151,747.181 152.556,742.792C154.111,738.389 156.375,734.458 159.347,731C162.319,727.542 165.972,724.722 170.292,722.542C174.611,720.361 179.542,719.264 185.069,719.264C191.639,719.264 197.236,720.778 201.875,723.792C206.5,726.792 209.931,730.653 212.139,735.361L207.778,737.861C206.542,735.292 205.042,733.153 203.264,731.417C201.5,729.694 199.611,728.292 197.569,727.208C195.528,726.139 193.403,725.361 191.194,724.875C188.972,724.389 186.792,724.153 184.653,724.153C179.958,724.153 175.806,725.097 172.208,727C168.611,728.917 165.569,731.389 163.083,734.431C160.597,737.472 158.708,740.917 157.431,744.764C156.153,748.611 155.514,752.458 155.514,756.333C155.514,760.708 156.264,764.861 157.792,768.806C159.319,772.75 161.389,776.222 164.014,779.236C166.639,782.25 169.75,784.653 173.347,786.458C176.944,788.25 180.819,789.153 184.958,789.153C187.181,789.153 189.444,788.875 191.75,788.319C194.069,787.778 196.319,786.903 198.5,785.722C200.681,784.556 202.694,783.042 204.569,781.208C206.431,779.375 207.986,777.208 209.236,774.722L213.694,776.903C212.444,779.667 210.778,782.125 208.667,784.278C206.556,786.417 204.181,788.222 201.556,789.667C198.931,791.125 196.153,792.222 193.208,792.944C190.278,793.667 187.389,794.042 184.542,794.042C179.5,794.042 174.889,792.931 170.708,790.708C166.528,788.5 162.903,785.611 159.861,782.042C156.819,778.472 154.458,774.431 152.764,769.889C151.069,765.361 150.222,760.736 150.222,756.028Z" style="fill:rgb(54,54,57);fill-rule:nonzero;"/>
        <path d="M251.028,794.458C247.222,794.458 243.722,793.708 240.5,792.222C237.292,790.736 234.5,788.708 232.153,786.139C229.806,783.583 227.972,780.611 226.653,777.208C225.347,773.819 224.681,770.25 224.681,766.514C224.681,762.708 225.361,759.111 226.708,755.722C228.056,752.333 229.931,749.347 232.306,746.792C234.694,744.222 237.472,742.208 240.667,740.708C243.833,739.222 247.292,738.486 251.028,738.486C254.764,738.486 258.236,739.222 261.458,740.708C264.667,742.208 267.472,744.222 269.861,746.792C272.236,749.347 274.111,752.333 275.458,755.722C276.806,759.111 277.472,762.708 277.472,766.514C277.472,770.25 276.806,773.819 275.458,777.208C274.111,780.611 272.25,783.583 269.903,786.139C267.556,788.708 264.75,790.736 261.5,792.222C258.25,793.708 254.764,794.458 251.028,794.458ZM229.972,766.722C229.972,769.917 230.528,772.903 231.639,775.708C232.75,778.514 234.25,780.958 236.153,783.028C238.042,785.111 240.278,786.75 242.833,787.958C245.389,789.167 248.125,789.778 251.028,789.778C253.931,789.778 256.667,789.167 259.222,787.958C261.778,786.75 264.014,785.069 265.917,782.931C267.819,780.778 269.333,778.306 270.472,775.5C271.625,772.694 272.194,769.667 272.194,766.417C272.194,763.236 271.625,760.236 270.472,757.431C269.333,754.625 267.819,752.167 265.917,750.056C264.014,747.944 261.778,746.264 259.222,745.028C256.667,743.778 253.931,743.153 251.028,743.153C248.194,743.153 245.5,743.778 242.944,745.028C240.375,746.264 238.139,747.958 236.194,750.111C234.264,752.25 232.75,754.764 231.639,757.639C230.528,760.514 229.972,763.542 229.972,766.722Z" style="fill:rgb(54,54,57);fill-rule:nonzero;"/>
        <path d="M315.125,794.458C311.389,794.458 307.931,793.667 304.75,792.111C301.569,790.556 298.833,788.486 296.514,785.889C294.194,783.292 292.403,780.306 291.125,776.958C289.833,773.597 289.194,770.125 289.194,766.514C289.194,762.778 289.819,759.208 291.069,755.819C292.306,752.431 294.042,749.458 296.25,746.889C298.458,744.333 301.069,742.292 304.083,740.764C307.083,739.236 310.389,738.486 313.986,738.486C316.333,738.486 318.569,738.833 320.681,739.514C322.792,740.208 324.722,741.125 326.486,742.264C328.25,743.417 329.847,744.75 331.306,746.264C332.75,747.792 334,749.417 335.042,751.153L335.042,717.611L340.222,717.611L340.222,786.139C340.222,787.875 340.958,788.736 342.403,788.736L342.403,793.417C342.056,793.486 341.75,793.514 341.472,793.514C341.194,793.514 340.917,793.514 340.639,793.514C339.125,793.514 337.889,793.028 336.958,792.069C336.028,791.097 335.556,790.028 335.556,788.847L335.556,782.611C333.347,786.208 330.389,789.083 326.694,791.236C322.986,793.375 319.139,794.458 315.125,794.458ZM316.056,789.778C317.931,789.778 319.931,789.403 322.083,788.639C324.222,787.875 326.222,786.819 328.083,785.472C329.958,784.125 331.528,782.583 332.806,780.847C334.083,779.125 334.833,777.25 335.042,775.236L335.042,757.486C334.278,755.542 333.194,753.694 331.778,751.931C330.361,750.167 328.75,748.639 326.958,747.361C325.153,746.083 323.208,745.056 321.139,744.292C319.069,743.542 317.069,743.153 315.125,743.153C312.014,743.153 309.194,743.833 306.667,745.181C304.153,746.528 301.972,748.292 300.139,750.472C298.306,752.653 296.903,755.153 295.944,757.958C294.972,760.75 294.486,763.639 294.486,766.625C294.486,769.736 295.042,772.681 296.153,775.444C297.25,778.222 298.792,780.681 300.764,782.819C302.736,784.972 305.014,786.667 307.611,787.917C310.208,789.153 313.014,789.778 316.056,789.778Z" style="fill:rgb(54,54,57);fill-rule:nonzero;"/>
        <path d="M382.847,794.458C379.042,794.458 375.528,793.708 372.278,792.222C369.028,790.736 366.208,788.694 363.819,786.097C361.431,783.5 359.569,780.5 358.222,777.111C356.875,773.722 356.194,770.083 356.194,766.208C356.194,762.403 356.875,758.819 358.222,755.458C359.569,752.097 361.417,749.167 363.764,746.625C366.125,744.111 368.917,742.111 372.167,740.667C375.417,739.208 378.917,738.486 382.639,738.486C386.444,738.486 389.958,739.222 393.167,740.708C396.389,742.208 399.167,744.208 401.528,746.736C403.875,749.264 405.722,752.208 407.069,755.556C408.417,758.917 409.097,762.472 409.097,766.208C409.097,766.556 409.069,766.986 409.042,767.5C409,768.028 408.986,768.347 408.986,768.486L361.583,768.486C361.792,771.611 362.528,774.5 363.764,777.167C365.014,779.833 366.583,782.125 368.486,784.069C370.389,786 372.583,787.528 375.069,788.639C377.569,789.75 380.222,790.292 383.056,790.292C384.931,790.292 386.778,790.042 388.611,789.514C390.444,789 392.139,788.292 393.694,787.389C395.25,786.486 396.625,785.403 397.833,784.125C399.042,782.833 400,781.431 400.694,779.917L405.25,781.167C404.417,783.097 403.264,784.875 401.778,786.5C400.292,788.139 398.569,789.542 396.597,790.708C394.625,791.889 392.458,792.806 390.111,793.458C387.764,794.125 385.333,794.458 382.847,794.458ZM404.014,764.333C403.806,761.153 403.097,758.25 401.889,755.611C400.667,752.986 399.125,750.708 397.222,748.819C395.319,746.917 393.125,745.417 390.625,744.347C388.139,743.278 385.486,742.736 382.639,742.736C379.806,742.736 377.153,743.278 374.667,744.347C372.167,745.417 369.972,746.917 368.069,748.819C366.167,750.722 364.653,753 363.514,755.667C362.375,758.333 361.694,761.222 361.486,764.333L404.014,764.333Z" style="fill:rgb(54,54,57);fill-rule:nonzero;"/>
        <path d="M447.361,720.208L452.542,720.208L463.542,747L474.542,720.208L479.722,720.208L466.75,751.25L482.208,787.181L510.417,719.681L516.236,719.681L484.708,793.417L479.833,793.417L463.653,755.514L447.361,793.417L442.486,793.417L411.069,719.681L416.764,719.681L445.083,787.181L460.333,751.25L447.361,720.208Z" style="fill:rgb(54,54,57);fill-rule:nonzero;"/>
        <path d="M554.403,744.083C549.486,744.222 545.236,745.667 541.639,748.403C538.042,751.125 535.514,754.889 534.069,759.667L534.069,793.417L528.875,793.417L528.875,739.417L533.75,739.417L533.75,752.708C535.625,748.903 538.097,745.806 541.167,743.417C544.25,741.028 547.556,739.653 551.083,739.306C551.764,739.306 552.389,739.292 552.944,739.264C553.5,739.222 553.986,739.208 554.403,739.208L554.403,744.083Z" style="fill:rgb(54,54,57);fill-rule:nonzero;"/>
        <path d="M567.361,793.417L567.361,739.417L572.542,739.417L572.542,793.417L567.361,793.417ZM567.361,727.167L567.361,717.611L572.542,717.611L572.542,727.167L567.361,727.167Z" style="fill:rgb(54,54,57);fill-rule:nonzero;"/>
        <path d="M615.903,790.819C615.625,790.958 615.153,791.208 614.5,791.597C613.847,791.972 613.014,792.333 612.014,792.681C611,793.028 609.889,793.347 608.639,793.625C607.389,793.903 606.042,794.042 604.597,794.042C603.139,794.042 601.778,793.833 600.5,793.417C599.222,793 598.097,792.375 597.125,791.542C596.167,790.708 595.375,789.708 594.792,788.528C594.208,787.361 593.917,785.972 593.917,784.375L593.917,743.667L586.333,743.667L586.333,739.417L593.917,739.417L593.917,720.931L599.097,720.931L599.097,739.417L611.75,739.417L611.75,743.667L599.097,743.667L599.097,783.125C599.097,785.139 599.792,786.653 601.167,787.653C602.556,788.653 604.139,789.153 605.944,789.153C608.083,789.153 609.931,788.792 611.486,788.069C613.042,787.333 614,786.875 614.347,786.667L615.903,790.819Z" style="fill:rgb(54,54,57);fill-rule:nonzero;"/>
        <path d="M627.722,793.417L627.722,739.417L632.903,739.417L632.903,793.417L627.722,793.417ZM627.722,727.167L627.722,717.611L632.903,717.611L632.903,727.167L627.722,727.167Z" style="fill:rgb(54,54,57);fill-rule:nonzero;"/>
        <path d="M696.069,793.417L690.889,793.417L690.889,763.292C690.889,756.306 689.903,751.222 687.931,748.042C685.958,744.847 682.792,743.25 678.444,743.25C676.153,743.25 673.889,743.667 671.639,744.5C669.403,745.333 667.319,746.514 665.417,748.042C663.528,749.556 661.847,751.333 660.389,753.375C658.944,755.417 657.875,757.625 657.181,759.972L657.181,793.417L652,793.417L652,739.417L656.764,739.417L656.764,752.292C657.875,750.208 659.25,748.333 660.917,746.625C662.569,744.931 664.403,743.486 666.403,742.264C668.417,741.056 670.569,740.125 672.889,739.458C675.208,738.806 677.569,738.486 680,738.486C685.875,738.486 690.014,740.542 692.444,744.667C694.861,748.778 696.069,754.681 696.069,762.361L696.069,793.417Z" style="fill:rgb(54,54,57);fill-rule:nonzero;"/>
        <path d="M736.514,794.25C732.792,794.25 729.361,793.458 726.25,791.903C723.139,790.347 720.444,788.278 718.167,785.681C715.875,783.083 714.125,780.125 712.875,776.792C711.625,773.472 711,770.042 711,766.514C711,762.847 711.611,759.319 712.819,755.931C714.028,752.542 715.75,749.542 717.958,746.944C720.167,744.347 722.806,742.292 725.889,740.764C728.958,739.236 732.333,738.486 736,738.486C740.708,738.486 744.792,739.708 748.292,742.167C751.778,744.625 754.778,747.625 757.264,751.153L757.264,739.417L761.931,739.417L761.931,794.458C761.931,798.125 761.236,801.333 759.861,804.111C758.472,806.875 756.625,809.181 754.306,811.014C751.986,812.847 749.292,814.236 746.208,815.167C743.139,816.097 739.903,816.569 736.514,816.569C733.403,816.569 730.611,816.278 728.125,815.694C725.625,815.097 723.431,814.264 721.528,813.194C719.625,812.125 717.931,810.806 716.458,809.25C714.958,807.694 713.667,805.972 712.556,804.111L716.083,801.722C718.236,805.389 721.139,808.069 724.792,809.764C728.458,811.458 732.375,812.319 736.514,812.319C739.292,812.319 741.889,811.931 744.347,811.167C746.806,810.417 748.944,809.292 750.778,807.792C752.611,806.306 754.069,804.458 755.139,802.236C756.208,800.028 756.75,797.431 756.75,794.458L756.75,782.611C754.528,786.069 751.597,788.875 747.931,791.028C744.264,793.167 740.458,794.25 736.514,794.25ZM737.764,789.778C740.042,789.778 742.25,789.347 744.403,788.486C746.542,787.611 748.5,786.486 750.264,785.111C752.028,783.722 753.5,782.167 754.667,780.431C755.847,778.708 756.542,776.972 756.75,775.236L756.75,757.486C755.917,755.403 754.806,753.486 753.417,751.722C752.042,749.958 750.472,748.444 748.708,747.208C746.944,745.958 745.042,744.972 743,744.25C740.958,743.514 738.903,743.153 736.833,743.153C733.583,743.153 730.681,743.847 728.125,745.236C725.556,746.611 723.403,748.417 721.639,750.625C719.875,752.847 718.528,755.361 717.583,758.167C716.653,760.958 716.194,763.778 716.194,766.625C716.194,769.736 716.75,772.681 717.847,775.444C718.958,778.222 720.5,780.681 722.458,782.819C724.431,784.972 726.722,786.667 729.306,787.917C731.903,789.153 734.722,789.778 737.764,789.778Z" style="fill:rgb(54,54,57);fill-rule:nonzero;"/>
        <path d="M782.778,793.417L782.778,719.792L788.069,719.792L788.069,764.444L831,719.681L837.125,719.681L806.528,751.986L838.681,793.417L832.667,793.417L803.097,755.194L788.069,770.667L788.069,793.417L782.778,793.417Z" style="fill:rgb(54,54,57);fill-rule:nonzero;"/>
        <path d="M849.875,793.417L849.875,739.417L855.069,739.417L855.069,793.417L849.875,793.417ZM849.875,727.167L849.875,717.611L855.069,717.611L855.069,727.167L849.875,727.167Z" style="fill:rgb(54,54,57);fill-rule:nonzero;"/>
        <path d="M896.444,794.458C892.708,794.458 889.25,793.667 886.083,792.111C882.889,790.556 880.153,788.486 877.833,785.889C875.514,783.292 873.708,780.306 872.431,776.958C871.153,773.597 870.514,770.125 870.514,766.514C870.514,762.778 871.139,759.208 872.389,755.819C873.625,752.431 875.361,749.458 877.569,746.889C879.792,744.333 882.389,742.292 885.403,740.764C888.417,739.236 891.708,738.486 895.306,738.486C897.653,738.486 899.889,738.833 902,739.514C904.111,740.208 906.042,741.125 907.806,742.264C909.569,743.417 911.167,744.75 912.625,746.264C914.083,747.792 915.319,749.417 916.361,751.153L916.361,717.611L921.542,717.611L921.542,786.139C921.542,787.875 922.278,788.736 923.722,788.736L923.722,793.417C923.375,793.486 923.069,793.514 922.792,793.514C922.514,793.514 922.236,793.514 921.958,793.514C920.444,793.514 919.208,793.028 918.278,792.069C917.347,791.097 916.875,790.028 916.875,788.847L916.875,782.611C914.667,786.208 911.708,789.083 908.014,791.236C904.306,793.375 900.458,794.458 896.444,794.458ZM897.375,789.778C899.25,789.778 901.25,789.403 903.403,788.639C905.542,787.875 907.542,786.819 909.417,785.472C911.278,784.125 912.847,782.583 914.125,780.847C915.417,779.125 916.153,777.25 916.361,775.236L916.361,757.486C915.597,755.542 914.514,753.694 913.097,751.931C911.681,750.167 910.069,748.639 908.264,747.361C906.472,746.083 904.542,745.056 902.458,744.292C900.389,743.542 898.375,743.153 896.444,743.153C893.333,743.153 890.514,743.833 888,745.181C885.472,746.528 883.292,748.292 881.458,750.472C879.625,752.653 878.222,755.153 877.264,757.958C876.292,760.75 875.806,763.639 875.806,766.625C875.806,769.736 876.361,772.681 877.472,775.444C878.569,778.222 880.111,780.681 882.083,782.819C884.056,784.972 886.333,786.667 888.931,787.917C891.514,789.153 894.333,789.778 897.375,789.778Z" style="fill:rgb(54,54,57);fill-rule:nonzero;"/>
        <path d="M958.361,794.458C954.208,794.458 950.236,793.764 946.444,792.375C942.639,790.986 939.319,788.917 936.486,786.139L939.069,782.611C941.972,785.25 944.986,787.181 948.097,788.431C951.208,789.667 954.625,790.292 958.361,790.292C963.069,790.292 966.847,789.306 969.722,787.333C972.583,785.361 974.028,782.611 974.028,779.083C974.028,777.417 973.667,776.014 972.931,774.875C972.208,773.736 971.125,772.764 969.667,771.972C968.222,771.167 966.417,770.458 964.278,769.833C962.125,769.222 959.639,768.556 956.806,767.875C953.764,767.181 951.125,766.486 948.875,765.792C946.625,765.097 944.778,764.264 943.333,763.292C941.875,762.333 940.792,761.153 940.056,759.764C939.333,758.389 938.972,756.625 938.972,754.472C938.972,751.778 939.486,749.417 940.528,747.417C941.569,745.403 943,743.736 944.833,742.431C946.667,741.111 948.778,740.125 951.153,739.458C953.542,738.806 956.083,738.486 958.778,738.486C963,738.486 966.736,739.194 969.986,740.611C973.236,742.028 975.75,743.847 977.556,746.056L974.653,748.861C972.847,746.792 970.514,745.236 967.653,744.194C964.778,743.153 961.722,742.639 958.472,742.639C956.458,742.639 954.583,742.833 952.819,743.25C951.056,743.667 949.514,744.333 948.208,745.236C946.889,746.125 945.847,747.292 945.083,748.708C944.333,750.125 943.944,751.806 943.944,753.75C943.944,755.333 944.208,756.625 944.722,757.583C945.25,758.556 946.069,759.389 947.208,760.083C948.361,760.778 949.833,761.375 951.625,761.903C953.417,762.417 955.569,762.986 958.056,763.611C961.444,764.444 964.444,765.236 967.083,766C969.708,766.764 971.903,767.694 973.667,768.806C975.431,769.917 976.778,771.222 977.708,772.75C978.639,774.278 979.111,776.208 979.111,778.569C979.111,783.417 977.222,787.264 973.458,790.139C969.681,793.014 964.653,794.458 958.361,794.458Z" style="fill:rgb(54,54,57);fill-rule:nonzero;"/>
        <path d="M150.222,756.028C150.222,751.597 151,747.181 152.556,742.792C154.111,738.389 156.375,734.458 159.347,731C162.319,727.542 165.972,724.722 170.292,722.542C174.611,720.361 179.542,719.264 185.069,719.264C191.639,719.264 197.236,720.778 201.875,723.792C206.5,726.792 209.931,730.653 212.139,735.361L207.778,737.861C206.542,735.292 205.042,733.153 203.264,731.417C201.5,729.694 199.611,728.292 197.569,727.208C195.528,726.139 193.403,725.361 191.194,724.875C188.972,724.389 186.792,724.153 184.653,724.153C179.958,724.153 175.806,725.097 172.208,727C168.611,728.917 165.569,731.389 163.083,734.431C160.597,737.472 158.708,740.917 157.431,744.764C156.153,748.611 155.514,752.458 155.514,756.333C155.514,760.708 156.264,764.861 157.792,768.806C159.319,772.75 161.389,776.222 164.014,779.236C166.639,782.25 169.75,784.653 173.347,786.458C176.944,788.25 180.819,789.153 184.958,789.153C187.181,789.153 189.444,788.875 191.75,788.319C194.069,787.778 196.319,786.903 198.5,785.722C200.681,784.556 202.694,783.042 204.569,781.208C206.431,779.375 207.986,777.208 209.236,774.722L213.694,776.903C212.444,779.667 210.778,782.125 208.667,784.278C206.556,786.417 204.181,788.222 201.556,789.667C198.931,791.125 196.153,792.222 193.208,792.944C190.278,793.667 187.389,794.042 184.542,794.042C179.5,794.042 174.889,792.931 170.708,790.708C166.528,788.5 162.903,785.611 159.861,782.042C156.819,778.472 154.458,774.431 152.764,769.889C151.069,765.361 150.222,760.736 150.222,756.028Z" style="fill:none;stroke-width:10.42px;stroke-linecap:butt;stroke:rgb(54,54,57);"/>
        <path d="M251.028,794.458C247.222,794.458 243.722,793.708 240.5,792.222C237.292,790.736 234.5,788.708 232.153,786.139C229.806,783.583 227.972,780.611 226.653,777.208C225.347,773.819 224.681,770.25 224.681,766.514C224.681,762.708 225.361,759.111 226.708,755.722C228.056,752.333 229.931,749.347 232.306,746.792C234.694,744.222 237.472,742.208 240.667,740.708C243.833,739.222 247.292,738.486 251.028,738.486C254.764,738.486 258.236,739.222 261.458,740.708C264.667,742.208 267.472,744.222 269.861,746.792C272.236,749.347 274.111,752.333 275.458,755.722C276.806,759.111 277.472,762.708 277.472,766.514C277.472,770.25 276.806,773.819 275.458,777.208C274.111,780.611 272.25,783.583 269.903,786.139C267.556,788.708 264.75,790.736 261.5,792.222C258.25,793.708 254.764,794.458 251.028,794.458ZM229.972,766.722C229.972,769.917 230.528,772.903 231.639,775.708C232.75,778.514 234.25,780.958 236.153,783.028C238.042,785.111 240.278,786.75 242.833,787.958C245.389,789.167 248.125,789.778 251.028,789.778C253.931,789.778 256.667,789.167 259.222,787.958C261.778,786.75 264.014,785.069 265.917,782.931C267.819,780.778 269.333,778.306 270.472,775.5C271.625,772.694 272.194,769.667 272.194,766.417C272.194,763.236 271.625,760.236 270.472,757.431C269.333,754.625 267.819,752.167 265.917,750.056C264.014,747.944 261.778,746.264 259.222,745.028C256.667,743.778 253.931,743.153 251.028,743.153C248.194,743.153 245.5,743.778 242.944,745.028C240.375,746.264 238.139,747.958 236.194,750.111C234.264,752.25 232.75,754.764 231.639,757.639C230.528,760.514 229.972,763.542 229.972,766.722Z" style="fill:none;stroke-width:10.42px;stroke-linecap:butt;stroke:rgb(54,54,57);"/>
        <path d="M315.125,794.458C311.389,794.458 307.931,793.667 304.75,792.111C301.569,790.556 298.833,788.486 296.514,785.889C294.194,783.292 292.403,780.306 291.125,776.958C289.833,773.597 289.194,770.125 289.194,766.514C289.194,762.778 289.819,759.208 291.069,755.819C292.306,752.431 294.042,749.458 296.25,746.889C298.458,744.333 301.069,742.292 304.083,740.764C307.083,739.236 310.389,738.486 313.986,738.486C316.333,738.486 318.569,738.833 320.681,739.514C322.792,740.208 324.722,741.125 326.486,742.264C328.25,743.417 329.847,744.75 331.306,746.264C332.75,747.792 334,749.417 335.042,751.153L335.042,717.611L340.222,717.611L340.222,786.139C340.222,787.875 340.958,788.736 342.403,788.736L342.403,793.417C342.056,793.486 341.75,793.514 341.472,793.514C341.194,793.514 340.917,793.514 340.639,793.514C339.125,793.514 337.889,793.028 336.958,792.069C336.028,791.097 335.556,790.028 335.556,788.847L335.556,782.611C333.347,786.208 330.389,789.083 326.694,791.236C322.986,793.375 319.139,794.458 315.125,794.458ZM316.056,789.778C317.931,789.778 319.931,789.403 322.083,788.639C324.222,787.875 326.222,786.819 328.083,785.472C329.958,784.125 331.528,782.583 332.806,780.847C334.083,779.125 334.833,777.25 335.042,775.236L335.042,757.486C334.278,755.542 333.194,753.694 331.778,751.931C330.361,750.167 328.75,748.639 326.958,747.361C325.153,746.083 323.208,745.056 321.139,744.292C319.069,743.542 317.069,743.153 315.125,743.153C312.014,743.153 309.194,743.833 306.667,745.181C304.153,746.528 301.972,748.292 300.139,750.472C298.306,752.653 296.903,755.153 295.944,757.958C294.972,760.75 294.486,763.639 294.486,766.625C294.486,769.736 295.042,772.681 296.153,775.444C297.25,778.222 298.792,780.681 300.764,782.819C302.736,784.972 305.014,786.667 307.611,787.917C310.208,789.153 313.014,789.778 316.056,789.778Z" style="fill:none;stroke-width:10.42px;stroke-linecap:butt;stroke:rgb(54,54,57);"/>
        <path d="M382.847,794.458C379.042,794.458 375.528,793.708 372.278,792.222C369.028,790.736 366.208,788.694 363.819,786.097C361.431,783.5 359.569,780.5 358.222,777.111C356.875,773.722 356.194,770.083 356.194,766.208C356.194,762.403 356.875,758.819 358.222,755.458C359.569,752.097 361.417,749.167 363.764,746.625C366.125,744.111 368.917,742.111 372.167,740.667C375.417,739.208 378.917,738.486 382.639,738.486C386.444,738.486 389.958,739.222 393.167,740.708C396.389,742.208 399.167,744.208 401.528,746.736C403.875,749.264 405.722,752.208 407.069,755.556C408.417,758.917 409.097,762.472 409.097,766.208C409.097,766.556 409.069,766.986 409.042,767.5C409,768.028 408.986,768.347 408.986,768.486L361.583,768.486C361.792,771.611 362.528,774.5 363.764,777.167C365.014,779.833 366.583,782.125 368.486,784.069C370.389,786 372.583,787.528 375.069,788.639C377.569,789.75 380.222,790.292 383.056,790.292C384.931,790.292 386.778,790.042 388.611,789.514C390.444,789 392.139,788.292 393.694,787.389C395.25,786.486 396.625,785.403 397.833,784.125C399.042,782.833 400,781.431 400.694,779.917L405.25,781.167C404.417,783.097 403.264,784.875 401.778,786.5C400.292,788.139 398.569,789.542 396.597,790.708C394.625,791.889 392.458,792.806 390.111,793.458C387.764,794.125 385.333,794.458 382.847,794.458ZM404.014,764.333C403.806,761.153 403.097,758.25 401.889,755.611C400.667,752.986 399.125,750.708 397.222,748.819C395.319,746.917 393.125,745.417 390.625,744.347C388.139,743.278 385.486,742.736 382.639,742.736C379.806,742.736 377.153,743.278 374.667,744.347C372.167,745.417 369.972,746.917 368.069,748.819C366.167,750.722 364.653,753 363.514,755.667C362.375,758.333 361.694,761.222 361.486,764.333L404.014,764.333Z" style="fill:none;stroke-width:10.42px;stroke-linecap:butt;stroke:rgb(54,54,57);"/>
        <path d="M447.361,720.208L452.542,720.208L463.542,747L474.542,720.208L479.722,720.208L466.75,751.25L482.208,787.181L510.417,719.681L516.236,719.681L484.708,793.417L479.833,793.417L463.653,755.514L447.361,793.417L442.486,793.417L411.069,719.681L416.764,719.681L445.083,787.181L460.333,751.25L447.361,720.208Z" style="fill:none;stroke-width:10.42px;stroke-linecap:butt;stroke:rgb(54,54,57);"/>
        <path d="M554.403,744.083C549.486,744.222 545.236,745.667 541.639,748.403C538.042,751.125 535.514,754.889 534.069,759.667L534.069,793.417L528.875,793.417L528.875,739.417L533.75,739.417L533.75,752.708C535.625,748.903 538.097,745.806 541.167,743.417C544.25,741.028 547.556,739.653 551.083,739.306C551.764,739.306 552.389,739.292 552.944,739.264C553.5,739.222 553.986,739.208 554.403,739.208L554.403,744.083Z" style="fill:none;stroke-width:10.42px;stroke-linecap:butt;stroke:rgb(54,54,57);"/>
        <path d="M567.361,793.417L567.361,739.417L572.542,739.417L572.542,793.417L567.361,793.417ZM567.361,727.167L567.361,717.611L572.542,717.611L572.542,727.167L567.361,727.167Z" style="fill:none;stroke-width:10.42px;stroke-linecap:butt;stroke:rgb(54,54,57);"/>
        <path d="M615.903,790.819C615.625,790.958 615.153,791.208 614.5,791.597C613.847,791.972 613.014,792.333 612.014,792.681C611,793.028 609.889,793.347 608.639,793.625C607.389,793.903 606.042,794.042 604.597,794.042C603.139,794.042 601.778,793.833 600.5,793.417C599.222,793 598.097,792.375 597.125,791.542C596.167,790.708 595.375,789.708 594.792,788.528C594.208,787.361 593.917,785.972 593.917,784.375L593.917,743.667L586.333,743.667L586.333,739.417L593.917,739.417L593.917,720.931L599.097,720.931L599.097,739.417L611.75,739.417L611.75,743.667L599.097,743.667L599.097,783.125C599.097,785.139 599.792,786.653 601.167,787.653C602.556,788.653 604.139,789.153 605.944,789.153C608.083,789.153 609.931,788.792 611.486,788.069C613.042,787.333 614,786.875 614.347,786.667L615.903,790.819Z" style="fill:none;stroke-width:10.42px;stroke-linecap:butt;stroke:rgb(54,54,57);"/>
        <path d="M627.722,793.417L627.722,739.417L632.903,739.417L632.903,793.417L627.722,793.417ZM627.722,727.167L627.722,717.611L632.903,717.611L632.903,727.167L627.722,727.167Z" style="fill:none;stroke-width:10.42px;stroke-linecap:butt;stroke:rgb(54,54,57);"/>
        <path d="M696.069,793.417L690.889,793.417L690.889,763.292C690.889,756.306 689.903,751.222 687.931,748.042C685.958,744.847 682.792,743.25 678.444,743.25C676.153,743.25 673.889,743.667 671.639,744.5C669.403,745.333 667.319,746.514 665.417,748.042C663.528,749.556 661.847,751.333 660.389,753.375C658.944,755.417 657.875,757.625 657.181,759.972L657.181,793.417L652,793.417L652,739.417L656.764,739.417L656.764,752.292C657.875,750.208 659.25,748.333 660.917,746.625C662.569,744.931 664.403,743.486 666.403,742.264C668.417,741.056 670.569,740.125 672.889,739.458C675.208,738.806 677.569,738.486 680,738.486C685.875,738.486 690.014,740.542 692.444,744.667C694.861,748.778 696.069,754.681 696.069,762.361L696.069,793.417Z" style="fill:none;stroke-width:10.42px;stroke-linecap:butt;stroke:rgb(54,54,57);"/>
        <path d="M736.514,794.25C732.792,794.25 729.361,793.458 726.25,791.903C723.139,790.347 720.444,788.278 718.167,785.681C715.875,783.083 714.125,780.125 712.875,776.792C711.625,773.472 711,770.042 711,766.514C711,762.847 711.611,759.319 712.819,755.931C714.028,752.542 715.75,749.542 717.958,746.944C720.167,744.347 722.806,742.292 725.889,740.764C728.958,739.236 732.333,738.486 736,738.486C740.708,738.486 744.792,739.708 748.292,742.167C751.778,744.625 754.778,747.625 757.264,751.153L757.264,739.417L761.931,739.417L761.931,794.458C761.931,798.125 761.236,801.333 759.861,804.111C758.472,806.875 756.625,809.181 754.306,811.014C751.986,812.847 749.292,814.236 746.208,815.167C743.139,816.097 739.903,816.569 736.514,816.569C733.403,816.569 730.611,816.278 728.125,815.694C725.625,815.097 723.431,814.264 721.528,813.194C719.625,812.125 717.931,810.806 716.458,809.25C714.958,807.694 713.667,805.972 712.556,804.111L716.083,801.722C718.236,805.389 721.139,808.069 724.792,809.764C728.458,811.458 732.375,812.319 736.514,812.319C739.292,812.319 741.889,811.931 744.347,811.167C746.806,810.417 748.944,809.292 750.778,807.792C752.611,806.306 754.069,804.458 755.139,802.236C756.208,800.028 756.75,797.431 756.75,794.458L756.75,782.611C754.528,786.069 751.597,788.875 747.931,791.028C744.264,793.167 740.458,794.25 736.514,794.25ZM737.764,789.778C740.042,789.778 742.25,789.347 744.403,788.486C746.542,787.611 748.5,786.486 750.264,785.111C752.028,783.722 753.5,782.167 754.667,780.431C755.847,778.708 756.542,776.972 756.75,775.236L756.75,757.486C755.917,755.403 754.806,753.486 753.417,751.722C752.042,749.958 750.472,748.444 748.708,747.208C746.944,745.958 745.042,744.972 743,744.25C740.958,743.514 738.903,743.153 736.833,743.153C733.583,743.153 730.681,743.847 728.125,745.236C725.556,746.611 723.403,748.417 721.639,750.625C719.875,752.847 718.528,755.361 717.583,758.167C716.653,760.958 716.194,763.778 716.194,766.625C716.194,769.736 716.75,772.681 717.847,775.444C718.958,778.222 720.5,780.681 722.458,782.819C724.431,784.972 726.722,786.667 729.306,787.917C731.903,789.153 734.722,789.778 737.764,789.778Z" style="fill:none;stroke-width:10.42px;stroke-linecap:butt;stroke:rgb(54,54,57);"/>
        <path d="M782.778,793.417L782.778,719.792L788.069,719.792L788.069,764.444L831,719.681L837.125,719.681L806.528,751.986L838.681,793.417L832.667,793.417L803.097,755.194L788.069,770.667L788.069,793.417L782.778,793.417Z" style="fill:none;stroke-width:10.42px;stroke-linecap:butt;stroke:rgb(54,54,57);"/>
        <path d="M849.875,793.417L849.875,739.417L855.069,739.417L855.069,793.417L849.875,793.417ZM849.875,727.167L849.875,717.611L855.069,717.611L855.069,727.167L849.875,727.167Z" style="fill:none;stroke-width:10.42px;stroke-linecap:butt;stroke:rgb(54,54,57);"/>
        <path d="M896.444,794.458C892.708,794.458 889.25,793.667 886.083,792.111C882.889,790.556 880.153,788.486 877.833,785.889C875.514,783.292 873.708,780.306 872.431,776.958C871.153,773.597 870.514,770.125 870.514,766.514C870.514,762.778 871.139,759.208 872.389,755.819C873.625,752.431 875.361,749.458 877.569,746.889C879.792,744.333 882.389,742.292 885.403,740.764C888.417,739.236 891.708,738.486 895.306,738.486C897.653,738.486 899.889,738.833 902,739.514C904.111,740.208 906.042,741.125 907.806,742.264C909.569,743.417 911.167,744.75 912.625,746.264C914.083,747.792 915.319,749.417 916.361,751.153L916.361,717.611L921.542,717.611L921.542,786.139C921.542,787.875 922.278,788.736 923.722,788.736L923.722,793.417C923.375,793.486 923.069,793.514 922.792,793.514C922.514,793.514 922.236,793.514 921.958,793.514C920.444,793.514 919.208,793.028 918.278,792.069C917.347,791.097 916.875,790.028 916.875,788.847L916.875,782.611C914.667,786.208 911.708,789.083 908.014,791.236C904.306,793.375 900.458,794.458 896.444,794.458ZM897.375,789.778C899.25,789.778 901.25,789.403 903.403,788.639C905.542,787.875 907.542,786.819 909.417,785.472C911.278,784.125 912.847,782.583 914.125,780.847C915.417,779.125 916.153,777.25 916.361,775.236L916.361,757.486C915.597,755.542 914.514,753.694 913.097,751.931C911.681,750.167 910.069,748.639 908.264,747.361C906.472,746.083 904.542,745.056 902.458,744.292C900.389,743.542 898.375,743.153 896.444,743.153C893.333,743.153 890.514,743.833 888,745.181C885.472,746.528 883.292,748.292 881.458,750.472C879.625,752.653 878.222,755.153 877.264,757.958C876.292,760.75 875.806,763.639 875.806,766.625C875.806,769.736 876.361,772.681 877.472,775.444C878.569,778.222 880.111,780.681 882.083,782.819C884.056,784.972 886.333,786.667 888.931,787.917C891.514,789.153 894.333,789.778 897.375,789.778Z" style="fill:none;stroke-width:10.42px;stroke-linecap:butt;stroke:rgb(54,54,57);"/>
        <path d="M958.361,794.458C954.208,794.458 950.236,793.764 946.444,792.375C942.639,790.986 939.319,788.917 936.486,786.139L939.069,782.611C941.972,785.25 944.986,787.181 948.097,788.431C951.208,789.667 954.625,790.292 958.361,790.292C963.069,790.292 966.847,789.306 969.722,787.333C972.583,785.361 974.028,782.611 974.028,779.083C974.028,777.417 973.667,776.014 972.931,774.875C972.208,773.736 971.125,772.764 969.667,771.972C968.222,771.167 966.417,770.458 964.278,769.833C962.125,769.222 959.639,768.556 956.806,767.875C953.764,767.181 951.125,766.486 948.875,765.792C946.625,765.097 944.778,764.264 943.333,763.292C941.875,762.333 940.792,761.153 940.056,759.764C939.333,758.389 938.972,756.625 938.972,754.472C938.972,751.778 939.486,749.417 940.528,747.417C941.569,745.403 943,743.736 944.833,742.431C946.667,741.111 948.778,740.125 951.153,739.458C953.542,738.806 956.083,738.486 958.778,738.486C963,738.486 966.736,739.194 969.986,740.611C973.236,742.028 975.75,743.847 977.556,746.056L974.653,748.861C972.847,746.792 970.514,745.236 967.653,744.194C964.778,743.153 961.722,742.639 958.472,742.639C956.458,742.639 954.583,742.833 952.819,743.25C951.056,743.667 949.514,744.333 948.208,745.236C946.889,746.125 945.847,747.292 945.083,748.708C944.333,750.125 943.944,751.806 943.944,753.75C943.944,755.333 944.208,756.625 944.722,757.583C945.25,758.556 946.069,759.389 947.208,760.083C948.361,760.778 949.833,761.375 951.625,761.903C953.417,762.417 955.569,762.986 958.056,763.611C961.444,764.444 964.444,765.236 967.083,766C969.708,766.764 971.903,767.694 973.667,768.806C975.431,769.917 976.778,771.222 977.708,772.75C978.639,774.278 979.111,776.208 979.111,778.569C979.111,783.417 977.222,787.264 973.458,790.139C969.681,793.014 964.653,794.458 958.361,794.458Z" style="fill:none;stroke-width:10.42px;stroke-linecap:butt;stroke:rgb(54,54,57);"/>
    </g>
</svg>
